<svg width="21" height="21" viewBox="0 0 21 21" fill="none" xmlns="http://www.w3.org/2000/svg">
<path d="M19.0312 2.625H1.96875C0.881426 2.625 0 3.50643 0 4.59375V16.4062C0 17.4936 0.881426 18.375 1.96875 18.375H19.0312C20.1186 18.375 21 17.4936 21 16.4062V4.59375C21 3.50643 20.1186 2.625 19.0312 2.625ZM19.0312 4.59375V6.26739C18.1116 7.0163 16.6455 8.18081 13.5111 10.6351C12.8203 11.1785 11.4521 12.4838 10.5 12.4686C9.54811 12.484 8.17938 11.1783 7.48892 10.6351C4.35504 8.18118 2.88853 7.01642 1.96875 6.26739V4.59375H19.0312ZM1.96875 16.4062V8.79367C2.90858 9.54224 4.24138 10.5927 6.27285 12.1834C7.16933 12.8891 8.73928 14.4469 10.5 14.4375C12.2521 14.4469 13.8021 12.9117 14.7268 12.1838C16.7582 10.5931 18.0914 9.54233 19.0312 8.79371V16.4062H1.96875Z" fill="#25245F"/>
</svg>
