<svg width="109" height="109" viewBox="0 0 109 109" fill="none" xmlns="http://www.w3.org/2000/svg">
<circle cx="54.5" cy="54.5" r="54.5" fill="#4218BB"/>
<path d="M38.9603 57.3138L37.0772 55.4493C36.2799 54.6599 36.2799 53.3833 37.0772 52.6022L53.558 36.2757C54.3554 35.4862 55.6446 35.4862 56.4335 36.2757L72.9143 52.5938C73.7116 53.3833 73.7116 54.6599 72.9143 55.4409L71.0313 57.3054C70.2255 58.1032 68.9107 58.0864 68.1219 57.2718L58.3929 47.1601V71.2972C58.3929 72.4142 57.4853 73.3128 56.3571 73.3128H53.6429C52.5147 73.3128 51.6072 72.4142 51.6072 71.2972V47.1601L41.8696 57.2802C41.0808 58.1032 39.7661 58.12 38.9603 57.3138Z" fill="white"/>
</svg>
