<svg width="20" height="20" viewBox="0 0 20 20" fill="none" xmlns="http://www.w3.org/2000/svg">
<g clip-path="url(#clip0)">
<path d="M19.2721 0.959407L15.2096 0.0219068C14.7682 -0.0796557 14.3151 0.150813 14.1354 0.564875L12.2604 4.93988C12.0964 5.32269 12.2057 5.77191 12.5299 6.03363L14.8971 7.97113C13.4909 10.9672 11.0339 13.4594 7.97526 14.893L6.03776 12.5258C5.77214 12.2016 5.32682 12.0922 4.94401 12.2563L0.56901 14.1313C0.151042 14.3149 -0.0794271 14.768 0.0221354 15.2094L0.959635 19.2719C1.05729 19.6938 1.43229 19.9985 1.8737 19.9985C11.8776 19.9985 19.9987 11.893 19.9987 1.87347C19.9987 1.43597 19.6979 1.05706 19.2721 0.959407Z" fill="#25245F"/>
</g>
<defs>
<clipPath id="clip0">
<rect width="20" height="20" fill="white"/>
</clipPath>
</defs>
</svg>
