<svg width="19" height="21" viewBox="0 0 19 21" fill="none" xmlns="http://www.w3.org/2000/svg">
<path d="M13.3 12.4688C12.0828 12.4688 11.4975 13.125 9.5 13.125C7.50246 13.125 6.92143 12.4688 5.7 12.4688C2.55312 12.4688 0 14.9379 0 17.9812V19.0312C0 20.1182 0.91183 21 2.03571 21H16.9643C18.0882 21 19 20.1182 19 19.0312V17.9812C19 14.9379 16.4469 12.4688 13.3 12.4688ZM16.9643 19.0312H2.03571V17.9812C2.03571 16.0289 3.68125 14.4375 5.7 14.4375C6.3192 14.4375 7.32433 15.0938 9.5 15.0938C11.6926 15.0938 12.6766 14.4375 13.3 14.4375C15.3187 14.4375 16.9643 16.0289 16.9643 17.9812V19.0312ZM9.5 11.8125C12.8717 11.8125 15.6071 9.16699 15.6071 5.90625C15.6071 2.64551 12.8717 0 9.5 0C6.12835 0 3.39286 2.64551 3.39286 5.90625C3.39286 9.16699 6.12835 11.8125 9.5 11.8125ZM9.5 1.96875C11.7435 1.96875 13.5714 3.73652 13.5714 5.90625C13.5714 8.07598 11.7435 9.84375 9.5 9.84375C7.25647 9.84375 5.42857 8.07598 5.42857 5.90625C5.42857 3.73652 7.25647 1.96875 9.5 1.96875Z" fill="#25245F"/>
</svg>
