<svg width="92" height="76" viewBox="0 0 92 76" fill="none" xmlns="http://www.w3.org/2000/svg">
<g clip-path="url(#clip0)">
<path d="M17.8889 -0.25C8.00208 -0.25 0 8.24911 0 18.75V56.75C0 67.2509 8.00208 75.75 17.8889 75.75C27.7757 75.75 35.7778 67.2509 35.7778 56.75V18.75C35.7778 8.24911 27.7757 -0.25 17.8889 -0.25ZM25.5556 37.75H10.2222V18.75C10.2222 14.2545 13.6562 10.6071 17.8889 10.6071C22.1215 10.6071 25.5556 14.2545 25.5556 18.75V37.75ZM47.8688 32.7116C47.3097 32.1179 46.3674 32.1857 45.9042 32.8473C38.6688 43.45 39.4514 58.3107 48.4437 67.8616C57.4361 77.4125 71.4278 78.2437 81.4104 70.5589C82.0493 70.067 82.0972 69.0661 81.5382 68.4723L47.8688 32.7116ZM84.5729 29.4884C75.5806 19.9375 61.5889 19.1062 51.6063 26.7911C50.9674 27.283 50.9194 28.2839 51.4785 28.8777L85.1479 64.6384C85.7069 65.2321 86.6493 65.1643 87.1125 64.5027C94.3479 53.883 93.5812 39.0393 84.5729 29.4884Z" fill="#4218BB"/>
</g>
<defs>
<clipPath id="clip0">
<rect width="92" height="76" fill="white"/>
</clipPath>
</defs>
</svg>
